<svg xmlns="http://www.w3.org/2000/svg" viewBox="0 0 119.68 114.86"><defs><style>.cls-1{fill:#ebebeb;}.cls-2{fill:#fff;}.cls-3{fill:#0b0b0b;fill-opacity:0.09;}.cls-4{fill:#e3e3e3;}</style></defs><g id="Layer_2" data-name="Layer 2"><g id="Layer_1-2" data-name="Layer 1"><path class="cls-1" d="M59.84.16C24.43-2.28,0,23.7,0,57.42A56.9,56.9,0,0,0,7.54,86.16c.08.12.15.25.22.38.16-.25.32-.49.5-.73,4.82-2.26,9.88-2.55,13.66-.85h0a9.73,9.73,0,0,1,3.33,2.4,6,6,0,0,1,.52.61A8,8,0,0,1,26.46,89,21.84,21.84,0,0,1,34,87.13a16,16,0,0,1,12.6,4.38,14.57,14.57,0,0,1,3.24,4.93,15.63,15.63,0,0,1,.8,2.6,14.29,14.29,0,0,1,3.5.27,10,10,0,0,1,6,3.62c2.35,3.06,2.49,7.3.8,11.48.56.08,1.11.15,1.67.2l1.23-.07h0c25-1.59,45.85-17.91,53.08-40a55,55,0,0,0,2.73-17.14C119.68,25.79,92.89.16,59.84.16Zm12.85,79.7c-5.75-.5-17.1-4.69-18.57-19.72-1.1-11.19,6.05-18,11.29-21l.66-.36.47-.23c6.35,4.67,16.31,18,6.17,41.2A.14.14,0,0,1,72.69,79.86Z"/><path class="cls-2" d="M67.5,2.86c-28.44,0-51.5,25.08-51.5,56A59.08,59.08,0,0,0,21.92,85h0a9.73,9.73,0,0,1,3.33,2.4,6,6,0,0,1,.52.61A8,8,0,0,1,26.46,89,21.84,21.84,0,0,1,34,87.13a16,16,0,0,1,12.6,4.38,14.57,14.57,0,0,1,3.24,4.93,15.63,15.63,0,0,1,.8,2.6,14.29,14.29,0,0,1,3.5.27,10,10,0,0,1,6,3.62c2.35,3.06,2.49,7.3.8,11.48.56.08,1.11.15,1.67.2l1.09.1q1.88.15,3.78.15c23.44,0,43.21-17,49.45-40.3a60.82,60.82,0,0,0,2-15.7C119,27.94,96,2.86,67.5,2.86ZM65.41,39.19l.66-.36.47-.23c6.35,4.67,16.31,18,6.17,41.2a.14.14,0,0,1,0,.06c-5.75-.5-17.1-4.69-18.57-19.72C53,49,60.17,42.09,65.41,39.19Z"/><path class="cls-3" d="M93,58.36c0,11.88-8.5,21.5-19,21.5q-.65,0-1.29-.06c10.14-23.17.18-36.53-6.17-41.2A16.73,16.73,0,0,1,74,36.86C84.5,36.86,93,46.49,93,58.36Z"/><path class="cls-4" d="M54.8,95.08a18.93,18.93,0,0,1-.68,4.23,14.29,14.29,0,0,0-3.5-.27,15.63,15.63,0,0,0-.8-2.6,14.57,14.57,0,0,0-3.24-4.93A16,16,0,0,0,34,87.13,21.84,21.84,0,0,0,26.46,89,8,8,0,0,0,25.77,88a6,6,0,0,0-.52-.61c.19-.21.39-.41.59-.61a23,23,0,0,1,7-4.81c6.47-2.89,13.57-2.26,18.05,2.22A14.27,14.27,0,0,1,54.8,95.08Z"/><path class="cls-4" d="M34,87.13A21.84,21.84,0,0,0,26.46,89,8,8,0,0,0,25.77,88a6,6,0,0,0-.52-.61A9.73,9.73,0,0,0,21.92,85h0c-3.78-1.7-8.84-1.41-13.66.85A21.23,21.23,0,0,1,19.09,78c5.22-1.57,10.35-.6,13.08,3a7.37,7.37,0,0,1,.62,1A9.41,9.41,0,0,1,34,87.13Z"/><path class="cls-4" d="M63.87,114.54h0a.75.75,0,0,1-.14.17l-1.09-.1c-.56,0-1.11-.12-1.67-.2,1.69-4.18,1.55-8.42-.8-11.48a10,10,0,0,0-6-3.62,14.29,14.29,0,0,0-3.5-.27,15.63,15.63,0,0,0-.8-2.6,17.55,17.55,0,0,1,5-1.36c4.3-.5,8.3.78,10.65,3.86C68.67,103.16,67.84,109.46,63.87,114.54Z"/><path d="M7.54,86.16l.72-.35c-.18.24-.34.48-.5.73C7.69,86.41,7.62,86.28,7.54,86.16Z"/></g></g></svg>